# xmcd
#
# Track frame offsets:
#       150
#       19182
#       34602
#       54690
#       64212
#       91082
#       103605
#       116327
#       130657
#       138542
#
# Disc length: 1971 seconds
#
# Revision: 0
# Processed by: cddbd v1.4PL0 Copyright (c) Steve Scherf et al.
# Submitted via: CD-DA_X-Tractor v0.21
#
DISCID=8107b10a
DTITLE=Pablo Milanes - Millennium 21
DYEAR=1900
DGENRE=
TTITLE0=Tu Mi Delirio
TTITLE1=Despertar
TTITLE2=Amo Esta Isla
TTITLE3=Seguire Mi Viaje
TTITLE4=Cuanto Gane, cuanto Perdi
TTITLE5=Un Universo
TTITLE6=Yo No Te Pido
TTITLE7=No Me Pidas
TTITLE8=Poposiciones
TTITLE9=Verdad Amarga
EXTD=
EXTT0=
EXTT1=
EXTT2=
EXTT3=
EXTT4=
EXTT5=
EXTT6=
EXTT7=
EXTT8=
EXTT9=
PLAYORDER=
